<svg viewBox="0 0 24 24" xmlns="http://www.w3.org/2000/svg" fill="none">
  <path d="M16.5 6C14.0147 6 12 7.79086 12 10C12 7.79086 9.98528 6 7.5 6C5.01472 6 3 8.23858 3 11C3 13.7614 5.01472 16 7.5 16C8.82843 16 10.0071 15.3506 10.7574 14.3431L12 12.6863L13.2426 14.3431C13.9929 15.3506 15.1716 16 16.5 16C18.9853 16 21 13.7614 21 11C21 8.23858 18.9853 6 16.5 6ZM7.5 14C5.84315 14 4.5 12.6569 4.5 11C4.5 9.34315 5.84315 8 7.5 8C9.15685 8 10.5 9.34315 10.5 11C10.5 12.6569 9.15685 14 7.5 14ZM16.5 14C14.8431 14 13.5 12.6569 13.5 11C13.5 9.34315 14.8431 8 16.5 8C18.1569 8 19.5 9.34315 19.5 11C19.5 12.6569 18.1569 14 16.5 14Z" fill="white"/>
</svg>
